<?xml version="1.0" standalone="no"?>
<!DOCTYPE svg PUBLIC "-//W3C//DTD SVG 20010904//EN"
 "http://www.w3.org/TR/2001/REC-SVG-20010904/DTD/svg10.dtd">
<svg version="1.0" xmlns="http://www.w3.org/2000/svg"
 width="640.000000pt" height="640.000000pt" viewBox="0 0 640.000000 640.000000"
 preserveAspectRatio="xMidYMid meet">
<metadata>
Created by potrace 1.11, written by Peter Selinger 2001-2013
</metadata>
<g transform="translate(0.000000,640.000000) scale(0.100000,-0.100000)"
fill="#000000" stroke="none">
<path d="M1186 5442 c-3 -3 -26 -5 -50 -4 -112 5 -185 -79 -176 -203 1 -16 2
-34 2 -40 0 -5 -1 -57 -1 -115 0 -58 0 -114 -1 -125 0 -23 1 -105 2 -114 0 -3
0 -8 -1 -11 -5 -13 -5 -110 -1 -110 3 0 5 -29 5 -65 0 -36 -2 -65 -5 -65 -3 0
-3 -36 0 -80 3 -45 3 -88 0 -96 -3 -8 -3 -44 0 -79 3 -36 3 -65 0 -65 -6 0 -4
-260 3 -266 2 -3 1 -21 -3 -42 -3 -20 -3 -48 0 -62 4 -14 4 -34 0 -44 -3 -11
-3 -39 0 -63 4 -23 4 -43 1 -43 -5 0 -6 -89 -1 -110 0 -3 1 -45 0 -95 -1 -152
1 -218 6 -227 3 -4 2 -8 -3 -8 -4 0 -7 -44 -6 -97 2 -129 3 -183 4 -240 0 -25
0 -49 1 -52 0 -3 0 -8 -1 -11 -5 -13 -5 -110 -1 -110 3 0 4 -36 4 -81 -1 -90
14 -184 45 -272 18 -52 58 -134 71 -147 3 -3 17 -23 31 -45 60 -91 164 -182
280 -242 114 -60 203 -83 344 -90 187 -8 295 -8 295 0 0 5 4 6 8 3 5 -3 40 -5
78 -5 71 -1 92 -1 182 -4 28 -1 52 0 52 3 0 3 29 3 65 0 35 -3 71 -3 79 0 8 3
51 3 96 0 44 -3 80 -3 80 0 0 3 29 5 65 5 36 0 65 -2 65 -5 0 -6 99 -4 105 2
3 2 30 1 60 -2 31 -3 58 -2 61 2 3 5 10 6 15 3 7 -5 100 -6 272 -4 9 0 37 0
62 0 25 0 52 0 60 0 8 0 35 0 60 0 25 0 53 0 63 0 568 -4 614 1 782 77 57 26
143 80 148 94 2 4 8 8 13 8 12 0 84 73 130 130 69 87 123 201 150 320 13 57
25 215 19 245 -1 6 -2 27 -1 48 l1 37 48 0 c62 0 78 0 131 0 24 0 47 3 51 5 5
3 11 1 15 -4 3 -6 11 -8 18 -6 7 3 57 7 112 9 154 8 236 23 365 68 312 110
568 332 717 623 38 75 86 197 98 248 2 12 12 51 20 87 30 124 25 406 -9 545
-27 107 -56 183 -108 285 -54 106 -67 128 -117 190 -95 121 -193 213 -308 291
-70 48 -233 133 -233 122 0 -3 -6 0 -14 6 -15 12 -100 41 -166 55 -95 21 -148
28 -245 32 -113 5 -186 6 -201 3 -5 -1 -11 -1 -14 0 -14 5 -270 5 -270 1 0 -3
-29 -3 -65 0 -35 3 -71 3 -79 0 -8 -3 -51 -3 -96 0 -44 3 -80 3 -80 0 0 -3
-29 -5 -65 -5 -36 0 -65 2 -65 5 0 4 -97 4 -110 -1 -3 -1 -8 -1 -11 -1 -9 1
-91 2 -114 2 -21 -1 -223 -2 -240 -1 -17 0 -159 1 -180 1 -11 -1 -44 0 -73 0
-29 0 -57 -2 -62 -5 -6 -3 -10 -3 -10 2 0 7 -93 9 -110 2 -3 -1 -9 -1 -14 0
-5 1 -47 2 -92 1 -95 -1 -84 -1 -184 -1 -41 1 -84 1 -95 1 -11 -1 -44 0 -73 0
-29 0 -57 -2 -62 -5 -6 -3 -10 -3 -10 2 0 6 -90 9 -110 3 -3 -1 -24 -1 -48 0
-115 4 -192 5 -192 0 0 -3 -29 -5 -65 -5 -36 0 -65 2 -65 5 0 4 -97 4 -110 -1
-3 -1 -8 -1 -11 -1 -3 1 -27 1 -52 1 -57 1 -111 2 -240 4 -53 1 -97 -2 -97 -6
0 -5 -4 -6 -8 -3 -9 5 -75 7 -227 6 -49 -1 -92 0 -95 0 -21 5 -110 4 -110 -1
0 -3 -20 -3 -43 1 -24 3 -52 3 -63 0 -10 -4 -31 -4 -46 1 -14 4 -29 5 -32 1z
m416 -485 c88 3 226 3 258 2 8 -1 35 -1 60 0 56 2 406 2 455 -1 6 0 24 1 40 2
17 0 89 1 160 1 72 0 135 0 140 0 6 0 75 0 155 0 80 0 152 0 160 0 8 0 80 0
160 0 80 0 152 0 160 0 8 0 80 0 160 0 80 0 152 0 160 0 8 0 71 0 140 0 69 -1
159 -1 200 -1 41 0 103 -1 138 -2 34 -2 62 -1 62 2 0 3 24 3 53 0 63 -6 57 27
58 -320 0 -58 0 -112 1 -120 0 -8 0 -35 -1 -60 -1 -25 -2 -79 -1 -120 0 -41 0
-122 1 -180 0 -58 0 -112 0 -120 1 -8 0 -28 0 -45 -2 -35 -3 -234 -2 -252 1
-7 1 -19 2 -25 1 -7 0 -26 -1 -43 -1 -16 -1 -70 0 -120 0 -49 1 -137 1 -195 0
-58 0 -112 1 -120 0 -8 0 -35 -1 -60 -2 -48 -2 -150 0 -295 0 -49 0 -94 1
-100 1 -129 -27 -216 -91 -283 -32 -35 -102 -79 -141 -90 -31 -8 -285 -15
-385 -10 -5 0 -23 0 -40 -1 -16 -1 -37 -1 -45 0 -8 0 -60 1 -115 0 -55 0 -107
0 -115 0 -8 1 -28 1 -45 0 -16 -1 -37 -1 -45 0 -8 0 -60 1 -115 0 -55 0 -107
0 -115 0 -8 1 -28 1 -45 0 -16 -1 -37 -1 -45 0 -8 0 -60 1 -115 0 -55 0 -107
0 -115 0 -8 1 -28 0 -45 -1 -36 -1 -375 -1 -407 1 -7 1 -33 1 -58 0 -25 -1
-92 -2 -150 -1 -58 0 -142 -1 -188 -3 -45 -1 -82 0 -82 3 0 3 -33 6 -73 6
-121 2 -220 67 -277 180 -20 40 -24 66 -27 149 -1 55 -3 102 -4 105 -1 3 -1 8
-1 11 2 13 3 99 2 169 0 41 0 122 -1 180 0 58 0 112 0 120 -1 8 0 29 1 45 1
17 1 71 0 120 0 50 -1 137 -1 195 0 58 0 112 -1 120 0 8 0 35 1 60 1 25 2 79
1 120 0 41 0 122 -1 180 0 58 0 112 0 120 -1 8 0 29 1 45 1 17 1 71 0 120 0
50 -1 137 -1 195 0 58 0 112 0 120 0 8 0 35 1 60 1 25 1 50 0 55 -1 6 -2 27
-1 47 1 34 4 37 34 40 17 2 33 1 34 -2 2 -3 45 -4 95 -3z m3548 -1 c118 -5
117 -5 220 -39 277 -91 478 -321 535 -610 23 -121 8 -316 -33 -422 -15 -36
-77 -158 -87 -169 -5 -6 -23 -29 -40 -51 -97 -130 -282 -247 -448 -285 -50
-11 -160 -22 -212 -21 -16 1 -76 2 -133 3 -56 2 -102 0 -102 -3 0 -3 -11 -4
-24 -2 -21 4 -24 11 -25 56 -2 29 -2 57 -2 62 0 6 2 36 3 68 2 31 1 57 -2 57
-3 0 -5 29 -5 65 0 36 2 65 5 65 3 0 4 44 3 97 -2 95 -2 144 -4 240 0 25 0 49
-1 52 0 3 0 8 1 11 5 13 5 110 1 110 -3 0 -5 29 -5 65 0 36 2 65 5 65 6 0 3
238 -4 263 -2 9 -1 17 2 17 4 0 7 25 7 55 0 30 -4 55 -8 55 -5 0 -6 4 -3 9 5
7 7 55 5 111 0 8 1 30 2 48 2 32 2 32 51 31 26 -1 50 0 52 2 4 4 65 3 246 -5z"/>
<path d="M146 1443 c-1 -1 -23 -3 -50 -4 -56 -3 -82 -25 -92 -74 -9 -52 16
-165 43 -186 7 -6 13 -17 13 -23 0 -19 79 -99 130 -133 59 -39 110 -55 190
-59 36 -2 65 -4 65 -4 0 -1 24 -2 53 -3 28 -1 52 1 52 4 0 3 20 3 43 -1 24 -3
52 -3 63 0 10 4 30 4 44 0 14 -3 42 -3 62 0 21 4 39 5 42 3 6 -7 266 -9 266
-3 0 3 29 3 65 0 35 -3 71 -3 79 0 8 3 51 3 96 0 44 -3 80 -3 80 0 0 3 29 5
65 5 36 0 65 -2 65 -5 0 -4 97 -4 110 1 3 1 8 1 11 1 3 -1 28 -1 55 -2 114 -1
144 -2 237 -3 53 -1 97 2 97 6 0 5 4 6 8 3 9 -5 75 -7 227 -6 50 1 92 0 95 0
21 -5 110 -4 110 1 0 3 20 3 43 -1 24 -3 52 -3 63 0 10 4 30 4 44 0 14 -3 42
-3 62 0 21 4 39 5 42 3 6 -7 266 -9 266 -3 0 3 29 3 65 0 35 -3 71 -3 79 0 8
3 51 3 96 0 44 -3 80 -3 80 0 0 3 29 5 65 5 36 0 65 -2 65 -5 0 -4 97 -4 110
1 3 1 8 1 11 1 3 -1 28 -1 55 -2 114 -1 144 -2 237 -3 53 -1 97 2 97 6 0 5 4
6 8 3 9 -5 75 -7 227 -6 50 1 92 0 95 0 21 -5 110 -4 110 1 0 3 20 3 43 -1 24
-3 52 -3 63 0 10 4 30 4 44 0 14 -3 42 -3 62 0 21 4 39 5 42 3 8 -9 266 -8
266 0 0 5 4 6 8 3 5 -3 40 -5 78 -5 71 -1 92 -1 182 -4 28 -1 52 2 52 6 0 5 4
6 8 3 9 -5 75 -7 227 -6 50 1 93 0 98 0 9 -2 106 -2 110 0 1 0 25 3 52 4 53 4
131 31 153 53 7 7 18 13 23 13 14 0 82 70 116 120 41 62 60 125 58 193 -1 49
-6 60 -26 75 -30 21 -36 22 -134 22 -44 0 -125 1 -180 1 -55 0 -113 0 -130 -1
-16 -1 -37 -2 -45 -1 -8 0 -62 0 -120 0 -58 1 -139 1 -180 1 -41 1 -95 0 -120
-1 -25 -1 -52 -1 -60 -1 -8 1 -62 1 -120 1 -58 0 -145 1 -195 1 -49 1 -103 1
-120 0 -16 -1 -37 -2 -45 -1 -8 0 -62 0 -120 0 -58 1 -139 1 -180 1 -117 1
-163 -1 -172 -6 -4 -3 -8 -2 -8 3 0 4 -51 7 -112 5 -62 -1 -153 -2 -203 -1
-49 0 -103 0 -120 -1 -16 -1 -37 -2 -45 -1 -8 0 -62 0 -120 0 -58 1 -139 1
-180 1 -41 1 -95 0 -120 -1 -25 -1 -52 -1 -60 -1 -8 1 -62 1 -120 1 -58 0
-145 1 -195 1 -49 1 -103 1 -120 0 -16 -1 -37 -2 -45 -1 -8 0 -62 0 -120 0
-58 1 -139 1 -180 1 -41 1 -95 0 -120 -1 -25 -1 -52 -1 -60 -1 -8 1 -62 1
-120 1 -58 0 -145 1 -195 1 -49 1 -103 1 -120 0 -16 -1 -37 -2 -45 -1 -8 0
-62 0 -120 0 -58 1 -139 1 -180 1 -41 1 -95 0 -120 -1 -25 -1 -52 -1 -60 -1
-8 1 -62 1 -120 1 -58 0 -145 1 -195 1 -49 1 -103 1 -120 0 -16 -1 -37 -2 -45
-1 -8 0 -62 0 -120 0 -132 1 -246 2 -262 2 -7 0 -38 0 -68 0 -30 -1 -79 0
-108 1 -30 2 -55 2 -56 1z"/>
</g>
</svg>
